<svg xmlns="http://www.w3.org/2000/svg" viewBox="0 0 1400 490"><linearGradient id="a" x1="703.9" x2="701.1" y1="-2.3" y2="501.2" gradientUnits="userSpaceOnUse"><stop offset="0" stopColor="#4A90D8"/><stop offset=".7" stopColor="#78CADE"/></linearGradient><def><g id="mountain"><path fill="#8BAA81" d="M1400 370V490H0V370l1 1 .7 1 6.4 7.8 19.5 24 3.6 4.5.7-.7 4.2-5.2 24.5-30.6c14.6-18 42-18 56.6 0l55.2 68.4 22.8 28.3 48.5-60.2c14.6-18 42-18 56.6 0l21.8 27 51-63.4c14.6-18.2 42-18.2 56.6 0l55 68.3 26-32.3c14.7-18 42.2-18 56.7 0l35 43.5 45.5-52.3 37-42.6c18.6-21.4 53.8-21.4 72.5 0l37.3 43 63.4 73 19.4-24c14.7-18.2 42.2-18.2 56.7 0l29.2 36.2 49-61c14.7-18.2 42.2-18.2 56.7 0l40 49.5 52.6-65.3c14.6-18 42-18 56.6 0l48 59.5.8 1 27-33.2 51-63.3c14.3-17.5 40.3-18 55.2-2z"/><path fill="#EDEDF4" d="M796 400.3c-1.7.5-3.3 1.5-4.5 3-3.8 4.4-11.7 4.4-15.5 0-3.8-4.6-11.7-4.6-15.5 0-3.8 4.4-11.7 4.4-15.5 0-3.8-4.6-11.7-4.6-15.5 0-3.8 4.4-11.7 4.4-15.5 0-3.8-4.6-11.7-4.6-15.5 0-3.8 4.4-11.7 4.4-15.5 0-3.8-4.6-11.7-4.6-15.5 0-3.8 4.4-11.7 4.4-15.5 0-1.3-1.6-3-2.6-5-3l41.5-51.5c17-21.2 49.4-21.2 66.5 0l41 51.5z"/></g></def><g id="loop"><path fill="url(#a)" d="M-1-4.4h1407v498H-1z"/><g><path fill="#84CEE1" d="M1403.4 389.6V494H-1V389l1-1 7-6c48.8-39.5 115.4-64 188.7-64 68.3 0 130.8 21.2 178.4 56 14 10.4 27 21.8 38 34.3 15.2-4 31.2-6 47.6-6 37 0 71.5 10.7 100 29.3 31-18.6 68-29.4 108-29.4 28 0 54.4 5.3 78.3 14.7 30-48.4 83-80.4 143.3-80.4 36 0 69 11.3 96.5 30.6C1038 321 1107.2 293 1183 293c88 0 166.6 37.3 220.4 96.6z"/></g><g id="sun"><path fill="#F79A43" d="M1389 77l-15.7 15.6v22h-22l-15.5 15.5-15.6-15.4h-22v-22L1282.7 77l15.5-15.5v-22h22l15.6-15.6 15.5 15.5h22v22"/><circle cx="1335.8" cy="77" r="37.6" fill="#FAB847"/></g><g id="cloud" data-svg-origin="1182.800048828125 54.09999084472656"><path fill="#EDEDF4" d="M1360.7 136.4h-151.2c-14.7 0-26.7-12-26.7-26.7 0-2.7.4-5.4 1.2-7.8 1.3-4.2 3.5-7.8 6.4-10.8 4.8-5 11.6-8 19-8 4.7 0 15 5.2 21 9l6.8 4.3 4.8-20.8c10-19.3 22-21.4 37-21.5h1.3c3.7 0 7.3.8 10.8 2.3 12.7 5.2 23 18.8 23 32.6 0 1.5-.2 3-.4 4.4L1311 113l19.5-3.3c7.5-1.3 14 3.6 15.5 10.6l2.4 12 12.3-.4h.2c1 0 2 1 2 2.2 0 1.2-1 2.2-2.3 2.2z"/></g><g id="mountains" data-svg-origin="0 332.89996337890625"><use xlinkHref="#mountain"/><use x="1400" xlinkHref="#mountain"/></g></g><g id="finish" display="none"><path fill="#84CEE1" d="M-1105.3-303.3h2596.2v802.8h-2596.2z"/><path fill="#81C4CC" d="M1484.5 183.3v311.1h-2583.4V164.2c1.5.3 2.9 1.1 4 2.4 2.8 3.5 8.1 3.5 10.9 0 2.8-3.5 8.1-3.5 10.9 0 2.8 3.5 8.1 3.5 10.9 0 2.8-3.5 8.1-3.5 10.9 0 2.8 3.5 8.1 3.5 10.9 0 2.8-3.5 8.1-3.5 10.9 0 2.8 3.5 8.1 3.5 10.9 0 2.8-3.5 8.1-3.5 10.9 0 2.8 3.5 8.1 3.5 10.9 0 2.8-3.5 8.1-3.5 10.9 0 2.8 3.5 8.1 3.5 10.9 0 2.8-3.5 8.1-3.5 10.9 0 2.8 3.5 8.1 3.5 10.9 0 2.8-3.5 8.1-3.5 10.9 0 2.8 3.5 8.1 3.5 10.9 0 2.8-3.5 8.1-3.5 10.9 0 2.8 3.5 8.1 3.5 10.9 0 2.8-3.5 8.1-3.5 10.9 0 2.8 3.5 8.1 3.5 10.9 0 2.8-3.5 8.1-3.5 10.9 0 2.8 3.5 8.1 3.5 10.9 0 2.8-3.5 8.1-3.5 10.9 0 2.8 3.5 8.1 3.5 10.9 0 2.8-3.5 8.1-3.5 10.9 0 2.8 3.5 8.1 3.5 10.9 0 2.8-3.5 8.1-3.5 10.9 0 2.8 3.5 8.1 3.5 10.9 0 2.8-3.5 8.1-3.5 10.9 0 2.8 3.5 8.1 3.5 10.9 0 2.8-3.5 8.1-3.5 10.9 0 2.8 3.5 8.1 3.5 10.9 0 2.8-3.5 8.1-3.5 10.9 0 2.8 3.5 8.1 3.5 10.9 0 2.8-3.5 8.1-3.5 10.9 0 1 1.2 2.3 2 3.7 2.4.5.1 1.1.2 1.7.2 2 0 4-.9 5.4-2.6 2.8-3.5 8.1-3.5 10.9 0 2.8 3.5 8.1 3.5 10.9 0 2.8-3.5 8.1-3.5 10.9 0 2.8 3.5 8.1 3.5 10.9 0 2.8-3.5 8.1-3.5 10.9 0 2.8 3.5 8.1 3.5 10.9 0 2.8-3.5 8.1-3.5 10.9 0 2.8 3.5 8.1 3.5 10.9 0 2.8-3.5 8.1-3.5 10.9 0 2.8 3.5 8.1 3.5 10.9 0 2.8-3.5 8.1-3.5 10.9 0 2.8 3.5 8.1 3.5 10.9 0 2.8-3.5 8.1-3.5 10.9 0 2.8 3.5 8.1 3.5 10.9 0 2.8-3.5 8.1-3.5 10.9 0 2.8 3.5 8.1 3.5 10.9 0 2.8-3.5 8.1-3.5 10.9 0 2.8 3.5 8.1 3.5 10.9 0 2.8-3.5 8.1-3.5 10.9 0 2.8 3.5 8.1 3.5 10.9 0 2.8-3.5 8.1-3.5 10.9 0 2.8 3.5 8.1 3.5 10.9 0 2.8-3.5 8.1-3.5 10.9 0 2.8 3.5 8.1 3.5 10.9 0 2.8-3.5 8.1-3.5 10.9 0 2.8 3.5 8.1 3.5 10.9 0 2.8-3.5 8.1-3.5 10.9 0 2.8 3.5 8.1 3.5 10.9 0 2.8-3.5 8.1-3.5 10.9 0 2.8 3.5 8.1 3.5 10.9 0 2.8-3.5 8.1-3.5 10.9 0 2.8 3.5 8.1 3.5 10.9 0 2.8-3.5 8.1-3.5 10.9 0 2.8 3.5 8.1 3.5 10.9 0 2.8-3.5 8.1-3.5 10.9 0 2.8 3.5 8.1 3.5 10.9 0 2.8-3.5 8.1-3.5 10.9 0 2.8 3.5 8.1 3.5 10.9 0 2.8-3.5 8.1-3.5 10.9 0 2.8 3.5 8.1 3.5 10.9 0 2.8-3.5 8.1-3.5 10.9 0 2.8 3.5 8.1 3.5 10.9 0 2.8-3.5 8.1-3.5 10.9 0 2.8 3.5 8.1 3.5 10.9 0 2.8-3.5 8.1-3.5 10.9 0 2.8 3.5 8.1 3.5 10.9 0 2.8-3.5 8.1-3.5 10.9 0 2.8 3.5 8.1 3.5 10.9 0 2.8-3.5 8.1-3.5 10.9 0 2.8 3.5 8.1 3.5 10.9 0 2.8-3.5 8.1-3.5 10.9 0 2.8 3.5 8.1 3.5 10.9 0 2.8-3.5 8.1-3.5 10.9 0 2.8 3.5 8.1 3.5 10.9 0 2.8-3.5 8.1-3.5 10.9 0 2.8 3.5 8.1 3.5 10.9 0 2.8-3.5 8.1-3.5 10.9 0 2.8 3.5 8.1 3.5 10.9 0 2.8-3.5 8.1-3.5 10.9 0 1.5 1.8 3.7 2.7 5.8 2.6 1.9-.1 3.7-1 5.1-2.6 2.8-3.5 8.1-3.5 10.9 0 2.8 3.5 8.1 3.5 10.9 0 2.8-3.5 8.1-3.5 10.9 0 2.8 3.5 8.1 3.5 10.9 0 2.8-3.5 8.1-3.5 10.9 0 2.8 3.5 8.1 3.5 10.9 0 2.8-3.5 8.1-3.5 10.9 0 2.8 3.5 8.1 3.5 10.9 0 2.8-3.5 8.1-3.5 10.9 0 2.8 3.5 8.1 3.5 10.9 0 2.8-3.5 8.1-3.5 10.9 0 2.8 3.5 8.1 3.5 10.9 0 2.8-3.5 8.1-3.5 10.9 0 2.8 3.5 8.1 3.5 10.9 0 2.8-3.5 8.1-3.5 10.9 0 2.8 3.5 8.1 3.5 10.9 0 2.8-3.5 8.1-3.5 10.9 0 2.8 3.5 8.1 3.5 10.9 0 2.8-3.5 8.1-3.5 10.9 0 2.8 3.5 8.1 3.5 10.9 0 2.8-3.5 8.1-3.5 10.9 0 2.8 3.5 8.1 3.5 10.9 0 2.8-3.5 8.1-3.5 10.9 0 2.8 3.5 8.1 3.5 10.9 0 2.8-3.5 8.1-3.5 10.9 0 2.8 3.5 8.1 3.5 10.9 0 2.8-3.5 8.1-3.5 10.9 0 2.8 3.5 8.1 3.5 10.9 0 2.8-3.5 8.1-3.5 10.9 0 2.8 3.5 8.1 3.5 10.9 0 2.8-3.5 8.1-3.5 10.9 0 2.8 3.5 8.1 3.5 10.9 0 2.8-3.5 8.1-3.5 10.9 0 2.8 3.5 8.1 3.5 10.9 0 2.8-3.5 8.1-3.5 10.9 0 2.8 3.5 8.1 3.5 10.9 0 2.8-3.5 8.1-3.5 10.9 0 2.8 3.5 8.1 3.5 10.9 0 2.8-3.5 8.1-3.5 10.9 0 2.8 3.5 8.1 3.5 10.9 0 2.8-3.5 8.1-3.5 10.9 0 2.8 3.5 8.1 3.5 10.9 0 2.8-3.5 8.1-3.5 10.9 0 2.8 3.5 8.1 3.5 10.9 0 2.8-3.5 8.1-3.5 10.9 0 2.8 3.5 8.1 3.5 10.9 0 2.8-3.5 8.1-3.5 10.9 0 2.8 3.5 8.1 3.5 10.9 0 2.8-3.5 8.1-3.5 10.9 0 2.8 3.5 8.1 3.5 10.9 0 2.8-3.5 8.1-3.5 10.9 0 2.8 3.5 8.1 3.5 10.9 0 2.8-3.5 8.1-3.5 10.9 0 2.8 3.5 8.1 3.5 10.9 0 2.8-3.5 8.1-3.5 10.9 0 2.8 3.5 8.1 3.5 10.9 0 2.8-3.5 8.1-3.5 10.9 0 2.8 3.5 8.1 3.5 10.9 0 2.8-3.5 8.1-3.5 10.9 0 1.2 1.5 2.9 2.4 4.7 2.6 2.2.2 4.6-.6 6.2-2.6 2.8-3.5 8.1-3.5 10.9 0 2.8 3.5 8.1 3.5 10.9 0 2.8-3.5 8.1-3.5 10.9 0 2.8 3.5 8.1 3.5 10.9 0 2.8-3.5 8.1-3.5 10.9 0 2.8 3.5 8.1 3.5 10.9 0 2.8-3.5 8.1-3.5 10.9 0 2.8 3.5 8.1 3.5 10.9 0 2.8-3.5 8.1-3.5 10.9 0 2.8 3.5 8.1 3.5 10.9 0 2.8-3.5 8.1-3.5 10.9 0 2.8 3.5 8.1 3.5 10.9 0 2.8-3.5 8.1-3.5 10.9 0 2.8 3.5 8.1 3.5 10.9 0 2.8-3.5 8.1-3.5 10.9 0 2.8 3.5 8.1 3.5 10.9 0 2.8-3.5 8.1-3.5 10.9 0 2.8 3.5 8.1 3.5 10.9 0 2.8-3.5 8.1-3.5 10.9 0 2.8 3.5 8.1 3.5 10.9 0 2.8-3.5 8.1-3.5 10.9 0 2.8 3.5 8.1 3.5 10.9 0 2.8-3.5 8.1-3.5 10.9 0 2.8 3.5 8.1 3.5 10.9 0 2.8-3.5 8.1-3.5 10.9 0 2.8 3.5 8.1 3.5 10.9 0 2.8-3.5 8.1-3.5 10.9 0 2.8 3.5 8.1 3.5 10.9 0 2.8-3.5 8.1-3.5 10.9 0 2.8 3.5 8.1 3.5 10.9 0 2.8-3.5 8.1-3.5 10.9 0 2.8 3.5 8.1 3.5 10.9 0 2.8-3.5 8.1-3.5 10.9 0 2.8 3.5 8.1 3.5 10.9 0 2.8-3.5 8.1-3.5 10.9 0 2.8 3.5 8.1 3.5 10.9 0 2.8-3.5 8.1-3.5 10.9 0 2.8 3.5 8.1 3.5 10.9 0 2.8-3.5 8.1-3.5 10.9 0 2.8 3.5 8.1 3.5 10.9 0 2.8-3.5 8.1-3.5 10.9 0 2.8 3.5 8.1 3.5 10.9 0 2.8-3.5 8.1-3.5 10.9 0 2.8 3.5 8.1 3.5 10.9 0 2.8-3.5 8.1-3.5 10.9 0 2.8 3.5 8.1 3.5 10.9 0 2.8-3.5 8.1-3.5 10.9 0 2.8 3.5 8.1 3.5 10.9 0 2.8-3.5 8.1-3.5 10.9 0 2.8 3.5 8.1 3.5 10.9 0 2.8-3.5 8.1-3.5 10.9 0 2.8 3.5 8.1 3.5 10.9 0 2.8-3.5 8.1-3.5 10.9 0 2.8 3.5 8.1 3.5 10.9 0 2.8-3.5 8.1-3.5 10.9 0 2.8 3.5 8.1 3.5 10.9 0 2.8-3.5 8.1-3.5 10.9 0 2.8 3.5 8.1 3.5 10.9 0 2.8-3.5 8.1-3.5 10.9 0 1.5 1.8 3.6 2.7 5.7 2.6 1.9-.1 3.8-1 5.1-2.6 2.8-3.5 8.1-3.5 10.9 0 2.8 3.5 8.1 3.5 10.9 0 2.8-3.5 8.1-3.5 10.9 0 2.8 3.5 8.1 3.5 10.9 0 2.8-3.5 8.1-3.5 10.9 0 2.8 3.5 8.1 3.5 10.9 0 2.8-3.5 8.1-3.5 10.9 0 2.8 3.5 8.1 3.5 10.9 0 2.8-3.5 8.1-3.5 10.9 0 2.8 3.5 8.1 3.5 10.9 0 2.8-3.5 8.1-3.5 10.9 0 2.8 3.5 8.1 3.5 10.9 0 2.8-3.5 8.1-3.5 10.9 0 2.8 3.5 8.1 3.5 10.9 0 2.8-3.5 8.1-3.5 10.9 0 2.8 3.5 8.1 3.5 10.9 0 2.8-3.5 8.1-3.5 10.9 0 2.8 3.5 8.1 3.5 10.9 0 2.8-3.5 8.1-3.5 10.9 0 2.8 3.5 8.1 3.5 10.9 0 2.8-3.5 8.1-3.5 10.9 0 2.5 3.1 7.2 3.4 10.1.8l-2.9 15.9z"/><path fill="#F7E4BC" d="M1484.4 208.9v285.6H56.7c-4-8.6-12.8-14.6-22.9-14.6h-218.6c-18.5 0-33.5-15-33.5-33.5 0-9.3 3.8-17.6 9.8-23.7 6.1-6.1 14.5-9.8 23.7-9.8H14.7c12.3 0 23.4-5 31.4-13s13-19.2 13-31.4c0-24.5-19.9-44.4-44.4-44.4h-408c-31.8 0-57.5-25.8-57.5-57.5 0-15.9 6.4-30.3 16.9-40.7 10.4-10.4 24.8-16.8 40.7-16.8h1877.6z"/><path fill="#8BB06F" d="M1484.4 196v200h-1261c-48 0-86.9-29.8-86.9-66.6v-66.8c0-36.8 38.9-66.6 86.9-66.6h1261z"/><g id="outercrab" transform="translate(-200,180)"><g id="crab"><path fill="#EE5486" d="M883.7 449.7c-.3.3-.7.2-1 0l-1.3-1.6h-2.6V448.7h1.8l1.9 2.2c-.3.3-.7.2-1 0l-1.3-1.5h-1.6l-.3.6h1l1.8 2.1c-.3.3-.7.3-1 0l-1.2-1.4h-1.2l-.1.1c-.6.7-1.5 1.1-2.5 1.1h-3.6c-1 0-2-.5-2.6-1.2h-1.2l-1.2 1.4c-.1.2-.3.2-.5.2s-.3-.1-.5-.2l1.8-2.1h1l-.3-.6h-1.6l-1.3 1.5c-.1.1-.3.2-.5.2s-.3-.1-.5-.2l1.9-2.2h1.8v-.4-.2h-2.6l-1.3 1.6c-.1.2-.3.2-.5.2s-.3-.1-.5-.2l2-2.3h3.1c.1-.2.2-.5.3-.7h-2c-1 0-1.9-.8-1.9-1.9v-1.6h.7v1.6c0 .6.5 1.2 1.2 1.2h2.5c0-.1.1-.1.1-.2.5-.5 1-.8 1.7-.9v-1c-.4-.1-.8-.5-.8-.9 0-.5.4-1 1-1 .5 0 1 .4 1 1 0 .5-.3.9-.8.9v.6c.6-.6 1.4-1 2.3-1 .9 0 1.8.4 2.3 1.1v-.7c-.4-.1-.8-.5-.8-.9 0-.5.4-1 1-1 .5 0 1 .4 1 1 0 .5-.3.9-.8.9v1c.7.2 1.3.6 1.8 1.1h2.5c.6 0 1.1-.5 1.1-1.2V442h.7v2.8c0 1-.8 1.9-1.9 1.9h-2c.1.2.2.5.3.7h3l2.2 2.3z"/><g fill="#EE5486"><path d="M866.8 441.4c0 1.1-.6 2-1.4 2.2h-.8l1.2-4.2c.1.1.2.1.3.2.5.5.7 1.1.7 1.8z"/><path d="M865.4 443.6h-.7c-.8-.2-1.4-1.1-1.4-2.2 0-.9.4-1.6.9-2l1.2 4.2z"/></g><circle cx="871" cy="443" r=".7" fill="#F1F1F1"/><circle cx="871" cy="443" r=".4" fill="#494452"/><circle cx="876" cy="443" r=".7" fill="#F1F1F1"/><circle cx="876" cy="443" r=".4" fill="#494452"/><g fill="#EE5486"><path d="M883.7 440.1c0 1.1-.6 2-1.4 2.2h-.8l1.2-4.2c.1.1.2.1.3.2.4.5.7 1.1.7 1.8z"/><path d="M882.3 442.3c-.1 0-.1 0 0 0h-.7c-.8-.2-1.4-1.1-1.4-2.2 0-.9.4-1.6.9-2l1.2 4.2z"/></g><path fill="#494452" d="M875.2 446.6c0 1-.8 1.8-1.8 1.8s-1.8-.8-1.8-1.8c0-.2.3-.2.3 0 0 .8.7 1.5 1.5 1.5s1.5-.7 1.5-1.5c0-.2.3-.2.3 0z"/></g></g><path id="waves" fill="#ADDACC" d="M1484.4 474.5v20H-1099v-20.8c3.6-2.2 8.5-1.6 11.4 2l.1.1c1.9 2.4 5.5 2.4 7.4 0v-.1c3.5-4.3 10.1-4.3 13.6 0v.1c1.9 2.4 5.5 2.4 7.4 0v-.1c3.5-4.3 10.1-4.3 13.6 0v.1c1.9 2.4 5.5 2.4 7.4 0v-.1c3.5-4.3 10.1-4.3 13.6 0v.1c1.9 2.4 5.5 2.4 7.4 0v-.1c3.5-4.3 10.1-4.3 13.6 0v.1c1.9 2.4 5.5 2.4 7.4 0v-.1c3.5-4.3 10.1-4.3 13.6 0v.1c1.9 2.4 5.5 2.4 7.4 0v-.1c3.5-4.3 10.1-4.3 13.6 0v.1c1.9 2.4 5.5 2.4 7.4 0v-.1c3.5-4.3 10.1-4.3 13.6 0v.1c1.9 2.4 5.5 2.4 7.4 0v-.1c3.5-4.3 10.1-4.3 13.6 0l.1.1c1.9 2.4 5.5 2.4 7.4 0v-.1c3.5-4.3 10.1-4.3 13.6 0v.1c1.9 2.4 5.5 2.4 7.4 0v-.1c3.5-4.3 10.1-4.3 13.6 0v.1c1.9 2.4 5.5 2.4 7.4 0v-.1c3.5-4.3 10.1-4.3 13.6 0v.1c1.9 2.4 5.5 2.4 7.4 0v-.1c3.5-4.3 10.1-4.3 13.6 0v.1c1.9 2.4 5.5 2.4 7.4 0v-.1c3.5-4.3 10.1-4.3 13.6 0v.1c1.9 2.4 5.5 2.4 7.4 0v-.1c3.5-4.3 10.1-4.3 13.6 0v.1c1.9 2.4 5.5 2.4 7.4 0v-.1c3.5-4.3 10.1-4.3 13.6 0l.1.1c1.9 2.4 5.5 2.4 7.4 0v-.1c3.5-4.3 10.1-4.3 13.6 0v.1c1.9 2.4 5.5 2.4 7.4 0v-.1c3.5-4.3 10.1-4.3 13.6 0v.1c1.9 2.4 5.5 2.4 7.4 0v-.1c3.5-4.3 10.1-4.3 13.6 0v.1c1.9 2.4 5.5 2.4 7.4 0l.1-.1c3.5-4.3 10.1-4.3 13.6 0v.1c1.9 2.4 5.5 2.4 7.4 0v-.1c3.5-4.3 10.1-4.3 13.6 0v.1c1.9 2.4 5.5 2.4 7.4 0v-.1c3.5-4.3 10.1-4.3 13.6 0v.1c1.9 2.4 5.5 2.4 7.4 0v-.1c3.5-4.3 10.1-4.3 13.6 0v.1c1.9 2.4 5.5 2.4 7.4 0v-.1c3.5-4.3 10.1-4.3 13.6 0l.1.1c1.9 2.4 5.5 2.4 7.4 0v-.1c3.5-4.3 10.1-4.3 13.6 0v.1c1.9 2.4 5.5 2.4 7.4 0v-.1c3.5-4.3 10.1-4.3 13.6 0v.1c1.9 2.4 5.5 2.4 7.4 0v-.1c3.5-4.3 10.1-4.3 13.6 0v.1c1.9 2.4 5.5 2.4 7.4 0v-.1c3.5-4.3 10.1-4.3 13.6 0v.1c1.9 2.4 5.5 2.4 7.4 0v-.1c3.5-4.3 10.1-4.3 13.6 0v.1c1.9 2.4 5.5 2.4 7.4 0v-.1c.3-.4.6-.7 1-1 1.6-1.4 3.6-2.2 5.6-2.2 2.1-.1 4.3.7 6 2.1.4.3.7.7 1.1 1.1v.1c1.9 2.4 5.5 2.4 7.4 0v-.1c3.5-4.3 10.1-4.3 13.6 0v.1c1.9 2.4 5.5 2.4 7.4 0v-.1c3.5-4.3 10.1-4.3 13.6 0l.1.1c1.9 2.4 5.5 2.4 7.4 0v-.1c3.5-4.3 10.1-4.3 13.6 0v.1c1.9 2.4 5.5 2.4 7.4 0v-.1c3.5-4.3 10.1-4.3 13.6 0v.1c1.9 2.4 5.5 2.4 7.4 0v-.1c3.5-4.3 10.1-4.3 13.6 0v.1c1.9 2.4 5.5 2.4 7.4 0l.1-.1c3.5-4.3 10.1-4.3 13.6 0v.1c1.9 2.4 5.5 2.4 7.4 0v-.1c3.5-4.3 10.1-4.3 13.6 0v.1c1.9 2.4 5.5 2.4 7.4 0v-.1c3.5-4.3 10.1-4.3 13.6 0v.1c1.9 2.4 5.5 2.4 7.4 0v-.1c3.5-4.3 10.1-4.3 13.6 0v.1c1.9 2.4 5.5 2.4 7.4 0v-.1c3.5-4.3 10.1-4.3 13.6 0l.1.1c1.9 2.4 5.5 2.4 7.4 0v-.1c3.5-4.3 10.1-4.3 13.6 0v.1c1.9 2.4 5.5 2.4 7.4 0v-.1c3.5-4.3 10.1-4.3 13.6 0v.1c1.9 2.4 5.5 2.4 7.4 0v-.1c3.5-4.3 10.1-4.3 13.6 0v.1c1.9 2.4 5.5 2.4 7.4 0v-.1c3.5-4.3 10.1-4.3 13.6 0v.1c1.9 2.4 5.5 2.4 7.4 0v-.1c3.5-4.3 10.1-4.3 13.6 0v.1c1.9 2.4 5.5 2.4 7.4 0v-.1c3.5-4.3 10.1-4.3 13.6 0v.1c1.9 2.4 5.5 2.4 7.4 0v-.1c3.5-4.3 10.1-4.3 13.6 0v.1c1.9 2.4 5.5 2.4 7.4 0v-.1c3.5-4.3 10.1-4.3 13.6 0v.1c1.9 2.4 5.5 2.4 7.4 0v-.1c3.5-4.3 10.1-4.3 13.6 0v.1c1.9 2.4 5.5 2.4 7.4 0v-.1c3.5-4.3 10.1-4.3 13.6 0v.1c1.9 2.4 5.5 2.4 7.4 0v-.1c3.5-4.3 10.1-4.3 13.6 0v.1c1.9 2.4 5.5 2.4 7.4 0v-.1c3.5-4.3 10.1-4.3 13.6 0v.1c1.9 2.4 5.5 2.4 7.4 0v-.1c3.5-4.3 10.1-4.3 13.6 0v.1c1.9 2.4 5.5 2.4 7.4 0v-.1c3.5-4.3 10.1-4.3 13.6 0v.1c1.9 2.4 5.5 2.4 7.4 0v-.1c3.5-4.3 10.1-4.3 13.6 0v.1c1.9 2.4 5.5 2.4 7.4 0l.1-.1c3.5-4.3 10.1-4.3 13.6 0v.1c1.9 2.4 5.5 2.4 7.4 0v-.1c3.5-4.3 10.1-4.3 13.6 0v.1c1.9 2.4 5.5 2.4 7.4 0v-.1c3.5-4.3 10.1-4.3 13.6 0v.1c1.9 2.4 5.5 2.4 7.4 0v-.1c3.5-4.3 10.1-4.3 13.6 0v.1c1.9 2.4 5.5 2.4 7.4 0v-.1c3.5-4.3 10.1-4.3 13.6 0v.1c1.9 2.4 5.5 2.4 7.4 0v-.1c3.2-3.9 8.9-4.3 12.5-1.1.4.3.7.7 1 1.1v.1c1.9 2.4 5.5 2.4 7.4 0v-.1c3.5-4.3 10.1-4.3 13.6 0v.1c1.9 2.4 5.5 2.4 7.4 0v-.1c3.5-4.3 10.1-4.3 13.6 0l.1.1c1.9 2.4 5.5 2.4 7.4 0v-.1c3.5-4.3 10.1-4.3 13.6 0v.1c1.9 2.4 5.5 2.4 7.4 0v-.1c3.5-4.3 10.1-4.3 13.6 0v.1c1.9 2.4 5.5 2.4 7.4 0v-.1c3.5-4.3 10.1-4.3 13.6 0v.1c1.9 2.4 5.5 2.4 7.4 0l.1-.1c3.5-4.3 10.1-4.3 13.6 0v.1c1.9 2.4 5.5 2.4 7.4 0v-.1c3.5-4.3 10.1-4.3 13.6 0v.1c1.9 2.4 5.5 2.4 7.4 0v-.1c3.5-4.3 10.1-4.3 13.6 0v.1c1.9 2.4 5.5 2.4 7.4 0v-.1c3.5-4.3 10.1-4.3 13.6 0v.1c1.9 2.4 5.5 2.4 7.4 0v-.1c3.5-4.3 10.1-4.3 13.6 0l.1.1c1.9 2.4 5.5 2.4 7.4 0v-.1c3.5-4.3 10.1-4.3 13.6 0v.1c1.9 2.4 5.5 2.4 7.4 0v-.1c3.5-4.3 10.1-4.3 13.6 0v.1c1.9 2.4 5.5 2.4 7.4 0v-.1c3.5-4.3 10.1-4.3 13.6 0v.1c1.9 2.4 5.5 2.4 7.4 0v-.1c3.5-4.3 10.1-4.3 13.6 0v.1c1.9 2.4 5.5 2.4 7.4 0v-.1c3.5-4.3 10.1-4.3 13.6 0v.1c1.9 2.4 5.5 2.4 7.4 0v-.1c3.5-4.3 10.1-4.3 13.6 0v.1c1.9 2.4 5.5 2.4 7.4 0v-.1c3.5-4.3 10.1-4.3 13.6 0l.1.1c1.9 2.4 5.5 2.4 7.4 0v-.1c3.5-4.3 10.1-4.3 13.6 0v.1c1.9 2.4 5.5 2.4 7.4 0v-.1c3.5-4.3 10.1-4.3 13.6 0v.1c1.9 2.4 5.5 2.4 7.4 0v-.1c3.5-4.3 10.1-4.3 13.6 0v.1c1.9 2.4 5.5 2.4 7.4 0l.1-.1c3.5-4.3 10.1-4.3 13.6 0v.1c1.9 2.4 5.5 2.4 7.4 0v-.1c3.5-4.3 10.1-4.3 13.6 0v.1c1.9 2.4 5.5 2.4 7.4 0v-.1c3.5-4.3 10.1-4.3 13.6 0v.1c1.9 2.4 5.5 2.4 7.4 0v-.1c3.5-4.3 10.1-4.3 13.6 0v.1c1.9 2.4 5.5 2.4 7.4 0v-.1c3.5-4.3 10.1-4.3 13.6 0l.1.1c1.9 2.4 5.5 2.4 7.4 0v-.1c3.5-4.3 10.1-4.3 13.6 0v.1c1.9 2.4 5.5 2.4 7.4 0v-.1c3.5-4.3 10.1-4.3 13.6 0v.1c1.9 2.4 5.5 2.4 7.4 0v-.1c3.5-4.3 10.1-4.3 13.6 0v.1c1.9 2.4 5.5 2.4 7.4 0v-.1c3.5-4.3 10.1-4.3 13.6 0v.1c1.9 2.4 5.5 2.4 7.4 0v-.1c3.5-4.3 10.1-4.3 13.6 0v.1c1.9 2.4 5.5 2.4 7.4 0v-.1c3.2-3.9 8.9-4.3 12.5-1.1v.1l1 1v.1c1.9 2.4 5.5 2.4 7.4 0l.1-.1c3.5-4.3 10.1-4.3 13.6 0v.1c1.9 2.4 5.5 2.4 7.4 0v-.1c3.5-4.3 10.1-4.3 13.6 0v.1c1.9 2.4 5.5 2.4 7.4 0v-.1c3.5-4.3 10.1-4.3 13.6 0v.1c1.9 2.4 5.5 2.4 7.4 0v-.1c3.5-4.3 10.1-4.3 13.6 0v.1c1.9 2.4 5.5 2.4 7.4 0v-.1c3.5-4.3 10.1-4.3 13.6 0v.1c1.9 2.4 5.5 2.4 7.4 0v-.1c3.5-4.3 10.1-4.3 13.6 0v.1c1.9 2.4 5.5 2.4 7.4 0v-.1c3.5-4.3 10.1-4.3 13.6 0v.1c1.9 2.4 5.5 2.4 7.4 0v-.1c3.5-4.3 10.1-4.3 13.6 0v.1c1.9 2.4 5.5 2.4 7.4 0v-.1c3.5-4.3 10.1-4.3 13.6 0v.1c1.9 2.4 5.5 2.4 7.4 0v-.1c3.5-4.3 10.1-4.3 13.6 0v.1c1.9 2.4 5.5 2.4 7.4 0v-.1c3.5-4.3 10.1-4.3 13.6 0v.1c1.9 2.4 5.5 2.4 7.4 0v-.1c3.5-4.3 10.1-4.3 13.6 0v.1c1.9 2.4 5.5 2.4 7.4 0v-.1c3.5-4.3 10.1-4.3 13.6 0v.1c1.9 2.4 5.5 2.4 7.4 0v-.1c3.5-4.3 10.1-4.3 13.6 0v.1c1.9 2.4 5.5 2.4 7.4 0v-.1c3.5-4.3 10.1-4.3 13.6 0v.1c1.9 2.4 5.5 2.4 7.4 0v-.1c3.5-4.3 10.1-4.3 13.6 0v.1c1.9 2.4 5.5 2.4 7.4 0v-.1c3.5-4.3 10.1-4.3 13.6 0v.1c1.9 2.4 5.5 2.4 7.4 0v-.1c3.5-4.3 10.1-4.3 13.6 0v.1c1.9 2.4 5.5 2.4 7.4 0v-.1c3.5-4.3 10.1-4.3 13.6 0v.1c1.9 2.4 5.5 2.4 7.4 0v-.1c3.5-4.3 10.1-4.3 13.6 0v.1c1.9 2.4 5.5 2.4 7.4 0v-.1c3.5-4.3 10.1-4.3 13.6 0v.1c1.9 2.4 5.5 2.4 7.4 0v-.1c3.5-4.3 10.1-4.3 13.6 0v.1c1.9 2.4 5.5 2.4 7.4 0v-.1c3.5-4.3 10.1-4.3 13.6 0v.1c1.9 2.4 5.5 2.4 7.4 0v-.1c3.5-4.3 10.1-4.3 13.6 0v.1c1.9 2.4 5.5 2.4 7.4 0v-.1c3.5-4.3 10.1-4.3 13.6 0v.1c1.9 2.4 5.5 2.4 7.4 0v-.1c3.5-4.3 10.1-4.3 13.6 0v.1c1.9 2.4 5.5 2.4 7.4 0v-.1c3.5-4.3 10.1-4.3 13.6 0v.1c1.9 2.4 5.5 2.4 7.4 0l.1-.1c3.5-4.3 10.1-4.3 13.6 0v.1c1.9 2.4 5.5 2.4 7.4 0v-.1c3.5-4.3 10.1-4.3 13.6 0v.1c1.9 2.4 5.5 2.4 7.4 0v-.1c3.5-4.3 10.1-4.3 13.6 0v.1c1.9 2.4 5.5 2.4 7.4 0v-.1c12.7-4.1 18.4-4.4 22-1.2z"/><path fill="#DDB56C" d="M913.2 344.5c-1.1 0-2.1-.4-3-1.1-15-12.8-26.4-26.9-33.8-42.1-8.4-17.1-11.2-34.7-8.5-52.2.4-2.5 2.8-4.3 5.3-3.9 2.5.4 4.3 2.8 3.9 5.3-2.7 17.3-1.2 51.4 39.1 85.7 2 1.7 2.2 4.6.5 6.5-.9 1.2-2.2 1.8-3.5 1.8z"/><path fill="#77935F" d="M912.8 242.8c-5.4 4.7-12.3 7.6-19.8 7.6s-14.3-2.8-19.8-7.6c0-.1-.1-.1-.1-.2l.1-.1c-.2-.2-.4-.3-.5-.5.1.1.2.3.3.4 0 .1.1.1.1.2-5.4 4.7-12.2 7.4-19.7 7.4s-14.3-2.8-19.8-7.6c5.4-4.7 12.3-7.6 19.8-7.6 1.3 0 2.5.1 3.8.2-1-.9-1.9-1.8-2.8-2.8-5.3-5.8-8.3-13.2-9.1-20.8 6.9.9 13.6 4.3 18.8 10.1.9 1 1.7 2 2.5 3.1-.1-1.2-.2-2.5-.2-3.8 0-8.2 2.6-15.8 6.9-21.8 4.3 6 6.9 13.6 6.9 21.8 0 1.4-.1 2.8-.2 4.2.8-1.1 1.6-2.1 2.5-3.1 5.3-5.8 12-9.2 18.8-10.1-.8 7.6-3.9 15-9.1 20.8-.9 1-1.9 1.9-2.8 2.8 1.2-.2 2.5-.2 3.8-.2 7.3 0 14.2 2.8 19.6 7.6z"/><circle cx="880.4" cy="244.4" r="7.1" fill="#806158"/><circle cx="866.2" cy="244.4" r="7.1" fill="#806158"/><path fill="#DDB56C" d="M1008.6 344.5c-1.1 0-2.1-.4-3-1.1-15-12.8-26.4-26.9-33.8-42.1-8.4-17.1-11.2-34.7-8.5-52.2.4-2.5 2.8-4.3 5.3-3.9 2.5.4 4.3 2.8 3.9 5.3-2.7 17.3-1.2 51.4 39.1 85.7 2 1.7 2.2 4.6.5 6.5-.9 1.2-2.2 1.8-3.5 1.8z"/><path fill="#77935F" d="M1008.2 242.8c-5.4 4.7-12.3 7.6-19.8 7.6s-14.3-2.8-19.8-7.6c0-.1-.1-.1-.1-.2l.1-.1c-.2-.2-.4-.3-.5-.5.1.1.2.3.3.4 0 .1.1.1.1.2-5.4 4.7-12.2 7.4-19.7 7.4s-14.3-2.8-19.8-7.6c5.4-4.7 12.3-7.6 19.8-7.6 1.3 0 2.5.1 3.8.2-1-.9-1.9-1.8-2.8-2.8-5.3-5.8-8.3-13.2-9.1-20.8 6.9.9 13.6 4.3 18.8 10.1.9 1 1.7 2 2.5 3.1-.1-1.2-.2-2.5-.2-3.8 0-8.2 2.6-15.8 6.9-21.8 4.3 6 6.9 13.6 6.9 21.8 0 1.4-.1 2.8-.2 4.2.8-1.1 1.6-2.1 2.5-3.1 5.3-5.8 12-9.2 18.8-10.1-.8 7.6-3.9 15-9.1 20.8-.9 1-1.9 1.9-2.8 2.8 1.2-.2 2.5-.2 3.8-.2 7.3 0 14.1 2.8 19.6 7.6z"/><circle cx="975.7" cy="244.4" r="7.1" fill="#806158"/><circle cx="961.5" cy="244.4" r="7.1" fill="#806158"/><path fill="#DDB56C" d="M886.2 352.1c-1.3 0-2.6-.6-3.5-1.6-1.7-2-1.4-4.9.5-6.5 40.3-34.3 41.8-68.4 39.1-85.7-.4-2.5 1.3-4.9 3.9-5.3 2.5-.4 4.9 1.3 5.3 3.9 2.7 17.5-.1 35.1-8.5 52.2-7.4 15.1-18.8 29.3-33.8 42.1-.9.5-2 .9-3 .9z"/><path fill="#77935F" d="M888.2 263.3c5.4 4.7 12.3 7.6 19.8 7.6s14.3-2.8 19.8-7.6c0-.1.1-.1.1-.2l-.1-.1c.2-.2.4-.3.5-.5-.1.1-.2.3-.3.4 0 .1-.1.1-.1.2 5.4 4.7 12.2 7.4 19.7 7.4s14.3-2.8 19.8-7.6c-5.4-4.7-12.3-7.6-19.8-7.6-1.3 0-2.5.1-3.8.2 1-.9 1.9-1.8 2.8-2.8 5.3-5.8 8.3-13.2 9.1-20.8-6.9.9-13.6 4.3-18.8 10.1-.9 1-1.7 2-2.5 3.1.1-1.2.2-2.5.2-3.8 0-8.2-2.6-15.8-6.9-21.8-4.3 6-6.9 13.6-6.9 21.8 0 1.4.1 2.8.2 4.2-.8-1.1-1.6-2.1-2.5-3.1-5.3-5.8-12-9.2-18.8-10.1.8 7.6 3.9 15 9.1 20.8.9 1 1.9 1.9 2.8 2.8-1.2-.2-2.5-.2-3.8-.2-7.3.1-14.2 2.9-19.6 7.6z"/><circle cx="920.7" cy="264.9" r="7.1" fill="#806158"/><circle cx="934.8" cy="264.9" r="7.1" fill="#806158"/><path fill="#DDB56C" d="M982 352.1c-1.3 0-2.6-.6-3.5-1.6-1.7-2-1.4-4.9.5-6.5 40.3-34.3 41.8-68.4 39.1-85.7-.4-2.5 1.3-4.9 3.9-5.3 2.5-.4 4.9 1.3 5.3 3.9 2.7 17.5-.1 35.1-8.5 52.2-7.4 15.1-18.8 29.3-33.8 42.1-.8.5-1.9.9-3 .9z"/><path fill="#77935F" d="M984 263.3c5.4 4.7 12.3 7.6 19.8 7.6s14.3-2.8 19.8-7.6c0-.1.1-.1.1-.2l-.1-.1c.2-.2.4-.3.5-.5-.1.1-.2.3-.3.4 0 .1-.1.1-.1.2 5.4 4.7 12.2 7.4 19.7 7.4s14.3-2.8 19.8-7.6c-5.4-4.7-12.3-7.6-19.8-7.6-1.3 0-2.5.1-3.8.2 1-.9 1.9-1.8 2.8-2.8 5.3-5.8 8.3-13.2 9.1-20.8-6.9.9-13.6 4.3-18.8 10.1-.9 1-1.7 2-2.5 3.1.1-1.2.2-2.5.2-3.8 0-8.2-2.6-15.8-6.9-21.8-4.3 6-6.9 13.6-6.9 21.8 0 1.4.1 2.8.2 4.2-.8-1.1-1.6-2.1-2.5-3.1-5.3-5.8-12-9.2-18.8-10.1.8 7.6 3.9 15 9.1 20.8.9 1 1.9 1.9 2.8 2.8-1.2-.2-2.5-.2-3.8-.2-7.3.1-14.1 2.9-19.6 7.6z"/><circle cx="1016.5" cy="264.9" r="7.1" fill="#806158"/><circle cx="1030.7" cy="264.9" r="7.1" fill="#806158"/><path fill="#806158" d="M1198.6 358.1h82.4v38.6h-82.4z"/><path fill="#E54E80" d="M1309.5 359.3h-182.3c4.2-2.3 8-5.1 11.3-8.5 8.9-8.9 14.5-21.3 14.5-35h130.7c0 18.8 10.4 35.1 25.8 43.5z"/><g><path fill="#F4F5F5" d="M1158.6 387.6c0 3.7.2 7.3.6 10.8H1146c-.4-3.6-.6-7.2-.6-10.8 0-3.7.2-7.3.6-10.8h13.2c-.4 3.5-.6 7.1-.6 10.8z"/><path fill="#868096" d="M1151.8 385.4c.4 0 .7 0 1.1.1v3.8c-.3.1-.7.1-1.1.1-1.5 0-2.8-.8-3.6-2.1.7-1 2.1-1.9 3.6-1.9z"/><path fill="#F4F5F5" d="M1155.3 387.5c-.1.2-.2.4-.4.5v-1.1c.2.2.3.4.4.6z"/><circle cx="1152.3" cy="375" r="3.9" fill="#E0B386"/><path fill="#F6921E" d="M1150.7 383.4v7.7c-2.1 0-3.9-1.7-3.9-3.9 0-2.1 1.7-3.8 3.9-3.8z"/><path fill="#F4F5F5" d="M1126.8 386.1h-.3.3z"/><g fill="#E0B386"><path d="M1165 382.8c0 1.7-.7 3.2-1.8 4.3-1.1 1.1-2.6 1.8-4.3 1.8h-5.4c-.1.1-.1.2-.2.3.2.1.3.4.3.6 0 .4-.3.8-.8.8-.4 0-.8-.3-.8-.8 0-.2.1-.5.3-.6-.2-.1-.3-.4-.3-.6 0-.2.1-.5.3-.6-.2-.1-.3-.4-.3-.6s.1-.5.3-.6c-.2-.1-.3-.4-.3-.6 0-.4.3-.8.8-.8.4 0 .7.3.8.7h5.3c1.8 0 3.3-1.5 3.3-3.3 0-.9-.4-1.7-1-2.3-.6-.6-1.4-1-2.3-1l.3-2.8c3.2.2 5.8 2.8 5.8 6.1zM1147.9 387.2c0 .2-.1.4-.2.5.1.1.2.3.2.5s-.1.4-.2.5c.1.1.2.3.2.5 0 .4-.3.8-.8.8-.4 0-.8-.3-.8-.8 0-.2.1-.4.2-.5h-1.2c-3.1-.3-5.5-2.9-5.5-6 0-1.7.7-3.2 1.8-4.3 1.1-1.1 2.6-1.8 4.3-1.8v.4c-.1.8-.2 1.6-.2 2.4-1.7.1-3 1.5-3 3.3 0 .9.4 1.7 1 2.3.5.5 1.1.8 1.7.9.2 0 .4.1.6.1h.4c0-.4.4-.7.8-.7s.8.3.8.8c0 .2-.1.4-.2.5 0 .2.1.4.1.6zM1146.6 388.8zM1146.6 388.8z"/></g><ellipse cx="1151.5" cy="370.2" fill="#D0AA8F" rx="10.2" ry="7.8" transform="matrix(.93 -.368 .368 .93 -55.471 449.301)"/><ellipse cx="1151.6" cy="370.4" fill="#CC967A" rx="5.4" ry="4.1" transform="matrix(.93 -.368 .368 .93 -55.509 449.325)"/></g><path fill="#A57C68" d="M1127.2 394.9h182.3v34.7h-182.3z"/><g><circle cx="1266" cy="386.7" r="3.9" fill="#F6921E"/><circle cx="1266" cy="384.8" r=".5" fill="#00A69C"/><circle cx="1316.2" cy="431.6" r="3.9" fill="#F6921E"/><circle cx="1316.2" cy="429.7" r=".5" fill="#00A69C"/><circle cx="1280.9" cy="381.2" r="3.9" fill="#F6921E"/><circle cx="1280.9" cy="379.4" r=".5" fill="#00A69C"/><circle cx="1288.6" cy="380.5" r="3.9" fill="#F6921E"/><circle cx="1289.9" cy="379.2" r=".5" fill="#00A69C"/><circle cx="1327.7" cy="431.6" r="3.9" fill="#F6921E"/><circle cx="1329" cy="430.3" r=".5" fill="#00A69C"/><circle cx="1279.7" cy="374.3" r="3.9" fill="#F6921E"/><circle cx="1281" cy="373" r=".5" fill="#00A69C"/><circle cx="1295.4" cy="430.4" r="3.9" fill="#F6921E"/><circle cx="1296.7" cy="429" r=".5" fill="#00A69C"/><circle cx="1272.2" cy="381" r="3.9" fill="#F6921E"/><circle cx="1270.9" cy="379.7" r=".5" fill="#00A69C"/><circle cx="1282.8" cy="368.5" r="3.9" fill="#F6921E"/><circle cx="1281.5" cy="367.1" r=".5" fill="#00A69C"/><circle cx="1285.9" cy="386.1" r="3.9" fill="#F6921E"/><circle cx="1276.1" cy="386.4" r="3.9" fill="#F6921E"/><circle cx="1307" cy="429.4" r="3.9" fill="#F6921E"/><circle cx="1296.1" cy="386.1" r="3.9" fill="#F6921E"/><circle cx="1285.4" cy="374.4" r="3.9" fill="#F6921E"/><circle cx="1291" cy="386.1" r="3.9" fill="#F29F5C"/><circle cx="1302.1" cy="431.6" r="3.9" fill="#F29F5C"/><g><circle cx="1300" cy="388.2" r="3.9" fill="#F29F5C"/></g><g><circle cx="1281.4" cy="388.2" r="3.9" fill="#F29F5C"/></g><g><circle cx="1276.5" cy="379.2" r="3.9" fill="#F29F5C"/></g><g><circle cx="1284.8" cy="379.9" r="3.9" fill="#F29F5C"/></g><g><circle cx="1270.9" cy="386.7" r="3.9" fill="#F29F5C"/></g><path fill="#CC967A" d="M1306 389.2c-.5 3.3-3.4 5.9-6.8 5.9h-34.3c-3.4 0-6.3-2.6-6.8-5.9h47.9z"/><circle cx="1283.4" cy="378.2" r=".5" fill="#00A69C"/><circle cx="1279.2" cy="385.6" r=".5" fill="#00A69C"/><circle cx="1278.5" cy="378.6" r=".5" fill="#00A69C"/></g><g><path fill="#5B5666" d="M1033.4 367.7h2.4V438h-2.4z"/><path fill="#E54E80" d="M1083 368.3h-96.7c3-1.9 5.7-4.1 8.2-6.6 5.9-5.9 10.3-13.2 12.6-21.4h55.1c3.3 11.7 10.8 21.6 20.8 28z"/></g><g><path fill="#E54E80" d="M1071.05 408.6l19.54 13.94-25.67 36-19.54-13.94z"/><path fill="#F4F5F5" d="M1074.02 410.92l2.6 1.85-25.66 36-2.6-1.86zM1079.5 414.64l2.62 1.86-25.66 36-2.6-1.87zM1084.87 418.2l2.6 1.87-25.65 36-2.6-1.86z"/></g><g><path fill="#F4F5F5" d="M983.96 425.56l21.1-11.43 21.06 38.86-21.1 11.42z"/><path fill="#E54E80" d="M986.73 424.2l2.98-1.63 21.07 38.86-3 1.62zM992.63 420.86l3-1.62 21.05 38.87-3 1.63zM998.83 417.56l3-1.62 21.05 38.86-3 1.62z"/></g><g><circle cx="1180.5" cy="382.8" r="3.4" fill="#F6921E"/><circle cx="1180.5" cy="382.8" r="2.7" fill="#F6B653"/><path fill="#F6921E" d="M1174.6 387.9c.1-.2.3-.5.5-.7-.2.3-.4.5-.5.7-.1 0-.1 0 0 0-.1 0-.1 0 0 0zM1179.7 392.8s0-.1 0 0c-.1.1-.2.1-.3.2.1-.1.2-.2.3-.2zM1180.7 387.9c-.2-.2-.4-.4-.5-.7.2.2.4.5.5.7z"/><path fill="#F6921E" d="M1175.1 387.2c-.1.2-.3.5-.5.7.1-.2.3-.5.5-.7zM1180.7 387.9c-.2-.2-.4-.4-.5-.7.2.2.4.5.5.7z"/><path fill="#F6921E" d="M1181.3 389.8c0 1.2-.6 2.3-1.5 3-.1.1-.2.1-.3.2-.2.2-.4.5-.4.9 0 .5.3.9.7 1.1h-4c.4-.2.7-.6.7-1.1 0-.5-.3-.9-.7-1.1-.9-.7-1.6-1.7-1.6-3 0-.7.2-1.3.5-1.9.2-.2.4-.4.5-.7.3-.5.5-1.2.5-1.9 0-1-.4-1.9-1-2.5h6.2c-.6.7-1 1.5-1 2.5 0 .7.2 1.3.5 1.9.1.2.3.5.5.7.2.6.4 1.2.4 1.9z"/><path fill="#CDE6D5" d="M1180.7 382.8c-.6.6-.9 1.4-1 2.2h-4.1c-.1-.9-.4-1.7-1-2.2h6.1z"/><path fill="#F6921E" d="M1179.7 392.8c-.1.1-.2.1-.3.2.1-.1.2-.2.3-.2zM1174.6 387.9c.1-.2.3-.5.5-.7-.2.3-.4.5-.5.7zM1180.7 387.9c-.2-.2-.4-.4-.5-.7.2.2.4.5.5.7z"/><path fill="#F6921E" d="M1179.7 392.7c0 .1 0 .1 0 0-.1.1-.2.2-.3.2.1 0 .2-.1.3-.2 0 .1 0 0 0 0z"/></g><g><circle cx="1233.2" cy="383" r="3.4" fill="#F6921E"/><circle cx="1233.2" cy="383" r="2.7" fill="#F6B653"/><path fill="#F6921E" d="M1227.2 388.1c.1-.2.3-.5.5-.7-.1.3-.3.5-.5.7zM1232.4 392.9c-.1.1-.2.1-.3.2.1-.1.2-.1.3-.2zM1233.4 388.1c-.2-.2-.4-.4-.5-.7.2.2.4.4.5.7z"/><path fill="#F6921E" d="M1227.8 387.4c-.1.2-.3.5-.5.7.1-.3.3-.5.5-.7zM1233.4 388.1c-.2-.2-.4-.4-.5-.7.2.2.4.4.5.7z"/><path fill="#F6921E" d="M1234 390c0 1.2-.6 2.3-1.5 3-.1.1-.2.1-.3.2-.2.2-.4.5-.4.9 0 .5.3.9.7 1.1h-4c.4-.2.7-.6.7-1.1 0-.5-.3-.9-.7-1.1-.9-.7-1.6-1.7-1.6-3 0-.7.2-1.3.5-1.9.2-.2.4-.4.5-.7.3-.5.5-1.2.5-1.9 0-1-.4-1.9-1-2.5h6.2c-.6.7-1 1.5-1 2.5 0 .7.2 1.3.5 1.9.1.2.3.5.5.7.2.5.4 1.2.4 1.9z"/><path fill="#CDE6D5" d="M1233.4 383c-.6.6-.9 1.4-1 2.2h-4.1c-.1-.9-.4-1.7-1-2.2h6.1z"/><path fill="#F6921E" d="M1232.4 392.9c-.1.1-.2.1-.3.2.1-.1.2-.1.3-.2zM1227.2 388.1c.1-.2.3-.5.5-.7-.1.3-.3.5-.5.7zM1233.4 388.1c-.2-.2-.4-.4-.5-.7.2.2.4.4.5.7z"/><path fill="#F6921E" d="M1232.4 392.9c-.1.1-.2.2-.3.2.1-.1.2-.1.3-.2z"/></g><g><path fill="#E0B386" d="M1192.8 385.5v5.4c0 1.5-.8 2.8-1.9 3.5-.9-.6-1.5-1.7-1.5-2.9v-2.6c0-1.9 1.5-3.4 3.4-3.4zM1176.7 395c-.6-.2-1-.7-1-1.3 0 .6.4 1.1 1 1.3z"/><g fill="#E0B386"><path d="M1194.5 399.1v3.4h-12.4c-1.4 0-2.5 1.1-2.5 2.5v5.9h-.1c0 1.1-.9 1.9-2 1.9-.8 0-1.4-.6-1.4-1.4V405c0-3.3 2.7-5.9 5.9-5.9h12.5z"/><path d="M1191.8 395.3v3.4h-9.8c-3.5 0-6.3 2.8-6.3 6.3V410.9c0 1.1-.9 1.9-2 1.9-.8 0-1.4-.6-1.4-1.4v-7.1c0-5 4-9 9-9h10.5zM1175.7 410.8z"/></g><path fill="#5B5666" d="M1210.2 405.8c0 1.7-1.3 3-3 3h-8.3v20.7h-1.7v-20.7h-8.3c-1.7 0-3-1.3-3-3 0-1.6 1.3-3 3-3h18.3c1.7 0 3 1.4 3 3zM1254.5 405.8c0 1.7-1.3 3-3 3h-8.5v20.7h-1.7v-20.7h-8.1c-1.6 0-3-1.3-3-3 0-1.6 1.3-3 3-3h18.3c1.7 0 3 1.4 3 3z"/><path fill="#F8E0A8" d="M1243 378.5l-3.2 1.3c-2 .8-4.3-.2-5.1-2.2l-1.1-2.7c-.5-1.3.1-2.8 1.4-3.3l2.2-.9c2.6-1 5.5.2 6.5 2.8l.7 1.7c.6 1.2-.1 2.7-1.4 3.3z"/><path fill="#E0B386" d="M1237.9 379.7l-.6.3c-.3.2-.8 0-.9-.3l-.7-1.4c-.2-.3 0-.8.3-.9l.6-.3c.3-.2.8 0 .9.3l.7 1.4c.2.3.1.7-.3.9z"/><path fill="#E54E80" d="M1205.9 390.4c0 7-5.7 12.7-12.7 12.7-5.4 0-10-3.3-11.8-8-.4-.9-.6-1.8-.8-2.8h6.8c.6 0 1.1-.2 1.4-.6.4-.4.6-.9.6-1.4V389c0-1.9 1.5-3.4 3.4-3.4h12.1c.7 1.4 1 3 1 4.8z"/><path fill="#E0B386" d="M1208.4 387.9h-2.7c.1.7.2 1.4.2 2.2h2.3c.6 0 1 .5 1 1v.1c0 .6-.5 1.1-1 1.1h-2.4c-.1 1-.4 1.9-.8 2.8h3.4c1 0 1.9-.4 2.5-1.1.7-.7 1.1-1.5 1.1-2.5 0-2-1.6-3.6-3.6-3.6zM1192.8 385.5v5.4c0 1.5-.8 2.8-1.9 3.5-.7.4-1.5.7-2.3.7H1177h-.1-.1c-.8-.1-1.5-.9-1.5-1.8 0-1 .8-1.8 1.8-1.8.6 0 1.2.3 1.5.8h8.9c.5 0 1-.2 1.3-.6.4-.4.6-.9.6-1.4V389c0-2 1.5-3.5 3.4-3.5zM1205 386.8v3.3c0 3-2.4 5.4-5.4 5.4-3 0-5.4-2.4-5.4-5.4v-3.3c0-.5.1-.9.2-1.4h.3c.4 0 .7-.2 1-.4.3-.3.4-.6.4-1s-.1-.7-.4-1c1-1.1 2.4-1.7 4-1.7 1.5 0 2.9.6 3.8 1.6.9 1.1 1.5 2.4 1.5 3.9z"/><path fill="#F8E0A8" d="M1217.1 387.6c-2.4 1.4-5.3 2.2-8.5 2.2-7.9 0-14.2-5-14.2-11.1 0-1.6.4-3.2 1.2-4.6 10.1.7 18.5 6.2 21.5 13.5z"/><path fill="#E0B386" d="M1237.1 415c0 .2-.1.4-.2.6l-1.3 1.8-1.1 1.6c-.3.5-1 .6-1.5.3s-.6-1-.3-1.5l.5-.6c-.5-.1-1-.3-1.5-.5 0 0-.1 0-.1-.1 0 0-.1 0-.1-.1-3.2-1.6-5.4-4.8-5.4-8.6h3.5c0 3.4 2.8 6.2 6.2 6.2h.4c.2 0 .4.1.5.2.2.1.4.4.4.7z"/><path fill="#F4F5F5" d="M1254.3 390.2c0 6.2-4.4 11.4-10.3 12.7-.9.2-1.7.3-2.6.3-.6 0-1.1 0-1.7-.1-.2 0-.4-.1-.6-.1-1.4-.2-2.7-.7-3.8-1.3-3.2.2-5.7 2.9-5.7 6.2v.1h-3.5v-.1c0-4 2.4-7.4 5.8-8.9 0 0 1.6-.6 2.4-.8h.4c.3 0 .7-.1 1-.1h.7c3.8-.6 6.7-3.8 6.7-7.8 0-1-.2-2-.6-2.9l-.3.1-2 .8c-.4.2-.8.2-1.1.1-.7-.1-1.4-.6-1.7-1.3l-.6-1.5-.8-1.9c-.2-.4-.2-.9-.1-1.3 0-.2.1-.3.2-.5.2-.5.6-.9 1.1-1.1l6.9-2.9c.4-.2.9-.2 1.3-.1.2 0 .3.1.5.2 4.8 1.8 8.4 6.6 8.4 12.2z"/><path fill="#E0B386" d="M1236.1 414h-.3.3c-.1 0 0 0 0 0z"/><path fill="#F4F5F5" d="M1245.7 378c-.2-.1-.3-.1-.5-.2.2.1.4.1.5.2z"/><g><path fill="#E0B386" d="M1242.6 389.8c0 4.4-3.6 8-8 8s-8-3.6-8-8c0-1.9.7-3.7 1.8-5.1.3-.6.9-1.1 1.6-1.1 1 0 1.8.8 1.8 1.8 0 .8-.5 1.4-1.2 1.7-.5.8-.8 1.7-.8 2.7 0 2.6 2.1 4.7 4.7 4.7s4.7-2.1 4.7-4.7c0-.5-.1-.9-.2-1.3.3 0 .6 0 .9-.2l2-.8.2-.1v.1c.4.7.5 1.5.5 2.3z"/></g><g><path fill="#F4F5F5" d="M1275.2 376.6c-.2-.1-.3-.1-.5-.2.2.1.4.2.5.2z"/></g><g fill="#E54E80"><path d="M1248.3 377.5c-.4.8-1.3 1.3-2.2 1.3-1 0-1.8-.5-2.2-1.3.4-.8 1.3-1.3 2.2-1.3 1 0 1.8.5 2.2 1.3zM1236.1 383c-.4.8-1.3 1.3-2.2 1.3s-1.8-.5-2.2-1.3c.4-.8 1.3-1.3 2.2-1.3s1.8.6 2.2 1.3zM1240.8 381.5c.2.9 0 1.8-.7 2.5s-1.6.9-2.5.7c-.2-.9 0-1.8.7-2.5s1.7-.9 2.5-.7zM1234.8 384.6c.2.9 0 1.8-.7 2.5s-1.6.9-2.5.7c-.2-.9 0-1.8.7-2.5.6-.8 1.6-1 2.5-.7zM1243.8 376.1c.2.9 0 1.8-.7 2.5s-1.6.9-2.5.7c-.2-.9 0-1.8.7-2.5s1.7-.9 2.5-.7z"/><path d="M1246.4 381.7c-.9.2-1.8 0-2.5-.7s-.9-1.6-.7-2.5c.9-.2 1.8 0 2.5.7.8.7 1 1.7.7 2.5zM1242.3 383.8c-.8-.4-1.3-1.3-1.3-2.2 0-1 .5-1.8 1.3-2.2.8.4 1.3 1.3 1.3 2.2 0 1-.5 1.8-1.3 2.2zM1236.2 387.8c-.8-.4-1.3-1.3-1.3-2.2 0-1 .5-1.8 1.3-2.2.8.4 1.3 1.3 1.3 2.2 0 .9-.5 1.8-1.3 2.2zM1236.8 383.5c-.8-.4-1.3-1.3-1.3-2.2 0-1 .5-1.8 1.3-2.2.8.4 1.3 1.3 1.3 2.2 0 1-.5 1.8-1.3 2.2zM1240.8 381.2c-.9.2-1.8 0-2.5-.7s-.9-1.6-.7-2.5c.9-.2 1.8 0 2.5.7s1 1.7.7 2.5z"/></g></g><circle cx="1230.2" cy="385.6" r="1.8" fill="#E0B386"/></g><g id="plane" data-svg-origin="80.30000305175781 127.19999694824219"><path fill="#F1F1F1" d="M363.3 202c0 3.6-2.2 7-4.7 9.4-2.4 2.4-5.8 3.2-9.4 3.2l-106.6.8L255 202h108.4z"/><path fill="#494452" d="M363.5 202c0 3.7-1.8 7-4.6 9.4-3 2.4-7 4-11.2 4H123.2c-8.7 0-15.7-6-15.7-13.5v-.2h256z"/><path fill="#F1F1F1" d="M162.2 188.3c0-1.8.7-3.4 2-4.5 1-1.2 2.7-2 4.4-2H297c3.4 0 6.3 3 6.3 6.5 0 1.8-.7 3.4-2 4.5-1 1.2-2.7 2-4.4 2H168.5c-3.5 0-6.4-3-6.4-6.5zM338.7 188.5h-13v-13.3c7.2.2 13 6 13 13.3z"/><path fill="#c9281c" d="M124.7 175.2H88l-7.7-14.7H111"/><path fill="#494452" d="M339 188.5h-13.3V175c7.4.2 13.4 6.2 13.4 13.5z"/><path fill="#c9281c" d="M303.3 188.3c0 1.8-.7 3.4-2 4.5-1 1.2-2.7 2-4.4 2H168.5c-3.5 0-6.4-3-6.4-6.5 0-1.8.7-3.4 2-4.5 1-1.2 2.7-2 4.4-2H297c3.4 0 6.3 3 6.3 6.5z"/><circle cx="296.9" cy="188.5" r="4.2" fill="#494452"/><circle cx="275.5" cy="188.5" r="4.2" fill="#494452"/><circle cx="254.2" cy="188.5" r="4.2" fill="#494452"/><circle cx="232.8" cy="188.5" r="4.2" fill="#494452"/><circle cx="211.4" cy="188.5" r="4.2" fill="#494452"/><circle cx="190" cy="188.5" r="4.2" fill="#494452"/><circle cx="168.6" cy="188.5" r="4.2" fill="#494452"/><path fill="#EDEDF2" d="M350 188.5h-24.3v-13.3h-73l-45-48h-33.5l34 48H88l6.5 12.2-13 26.2H96l11-11.8h103l-9.4 13.4-26.2 37H208l34.6-37 12.5-13.4h108.4c0-7.3-6-13.3-13.5-13.3zm-186-4.8c1.3-1.2 3-2 4.6-2H297c3.4 0 6.3 3 6.3 6.5 0 1.8-.7 3.4-2 4.5-1 1.2-2.7 2-4.4 2H168.5c-3.5 0-6.4-3-6.4-6.5 0-1.7.7-3.3 2-4.5z"/></g></svg>